<svg xmlns="http://www.w3.org/2000/svg" viewBox="0 0 466.18 116.92"><defs><style>.cls-1{fill:#00508d;}.cls-2{fill:#fff;}</style></defs><g id="Camada_2" data-name="Camada 2"><g id="Camada_1-2" data-name="Camada 1"><path class="cls-1" d="M57.88,112.57a53.72,53.72,0,0,1-16.08-2.64c-1.41-.45-2.58-.88-3.68-1.32a54.11,54.11,0,1,1,70.48-29.8,54.06,54.06,0,0,1-50.15,33.77Z"/><path class="cls-1" d="M58.48,8.7a49.76,49.76,0,1,1,0,99.52h-.51a49.35,49.35,0,0,1-14.79-2.43c-1.13-.36-2.26-.76-3.38-1.21A49.77,49.77,0,0,1,58.48,8.7m0-8.7V0a58.46,58.46,0,0,0-22,112.64c1.2.49,2.46.94,4,1.43a58.19,58.19,0,0,0,17.38,2.85h.61a58.71,58.71,0,0,0,46.73-23.3A58.48,58.48,0,0,0,58.48,0"/><path class="cls-2" d="M23,93.36c22.15-15.75,9.08-34.94,9.08-34.94,21.16,11.31,24.81,34.51,13.87,45.71a6.77,6.77,0,0,1-2.79,1.66c-1.13-.36-2.26-.76-3.38-1.21A49.61,49.61,0,0,1,23,93.36"/><path class="cls-2" d="M9.27,69.2S4.35,61.27,5.06,52.84,13.15,36,19.43,33c1.49-4,4.76-5.65,7.85-4.64-2.66-2.32-1.17-3.1,5.47-8.85C39,14.09,75.2-.4,93.91,28.29c-7-5.48-13.9-4.54-13.9-4.54S95.53,26,102.44,46.85C91.84,33.63,83.66,33.33,83.66,33.33s2.87.79,8.78,8.12c5.38,6.67,10.61,17,11,32.32C86.25,54.54,6.81,34.74,9.64,68.6Z"/><path class="cls-1" d="M38.26,42.91s-6.57-.86-7.63-4c3-3.24,7.63,4,7.63,4"/><path class="cls-1" d="M47.75,30.85l1.41-.33a4.9,4.9,0,0,0-.32.65,4.27,4.27,0,0,0,2.72,5.56,4.67,4.67,0,0,0,5.9-2.55A4.2,4.2,0,0,0,55.6,29l5.5-2.25c4.64.7,6.85,3.53,7.33,5,.16,3.67-4.66,8.34-10.7,8.55s-11.08-2.59-11.24-6.27a4.76,4.76,0,0,1,1.26-3.24"/><path class="cls-1" d="M144.12,89.87a24.43,24.43,0,0,1-10.58-9.39,26.33,26.33,0,0,1-3.69-14,37.35,37.35,0,0,1,4.78-18.84,34.46,34.46,0,0,1,13.48-13.21,40.37,40.37,0,0,1,19.94-4.83,35.51,35.51,0,0,1,14.58,2.81,20.76,20.76,0,0,1,9.57,8.08L181.93,49q-4.92-7.2-14.85-7.2a22.42,22.42,0,0,0-11.94,3.16,21.76,21.76,0,0,0-8,8.6,25.76,25.76,0,0,0-2.85,12.12q0,7.13,4.52,11.29t12.69,4.17A21.37,21.37,0,0,0,177.8,74l8.43,8.6q-9.14,10.64-26,10.63a36.5,36.5,0,0,1-16.11-3.34"/><path class="cls-1" d="M195,82.61a18,18,0,0,1-7.69-6.84,19.09,19.09,0,0,1-2.71-10.23A24.88,24.88,0,0,1,188,52.6a24.39,24.39,0,0,1,9.38-9.06,27.43,27.43,0,0,1,13.51-3.32,25.91,25.91,0,0,1,11.57,2.43,18.09,18.09,0,0,1,7.65,6.83,19.21,19.21,0,0,1,2.71,10.24,25.14,25.14,0,0,1-3.36,12.94,24.12,24.12,0,0,1-9.38,9.06A27.68,27.68,0,0,1,206.55,85,25.93,25.93,0,0,1,195,82.61m18.89-9.83a12.34,12.34,0,0,0,4.53-5,16.56,16.56,0,0,0,1.61-7.45,9.55,9.55,0,0,0-2.58-7q-2.59-2.58-7.29-2.58a12.18,12.18,0,0,0-6.63,1.82A12.34,12.34,0,0,0,199,57.53,16.42,16.42,0,0,0,197.41,65,9.43,9.43,0,0,0,200,72a10,10,0,0,0,7.32,2.59,12.09,12.09,0,0,0,6.56-1.82"/><path class="cls-1" d="M278.79,44.06q4.27,3.84,4.28,11a25,25,0,0,1-.56,5.26l-4.86,24.11H265l4.69-23.3a12.8,12.8,0,0,0,.33-3,6.84,6.84,0,0,0-1.86-5.18q-1.86-1.79-5.58-1.78a11.79,11.79,0,0,0-8.05,2.79q-3.19,2.79-4.33,8.38l-4.37,22.08H233.24l8.66-43.52h10.21l.79,4.69a20.39,20.39,0,0,1,14.32-5.34q7.27,0,11.57,3.84"/><path class="cls-1" d="M310.51,35.24a9,9,0,0,0-2.31,5l-.32,1.62H319L317,51.55H306.26l-6.55,32.84H287.09l6.55-32.84h-6.8l1.94-9.71h6.8l.49-2.51a20.09,20.09,0,0,1,6.35-11.45q4.8-4.15,12.58-4.16a23.23,23.23,0,0,1,5.54.64A16.37,16.37,0,0,1,325,26.14l-4.94,9.06a8.07,8.07,0,0,0-5-1.53,6.36,6.36,0,0,0-4.57,1.57m11.1,17.4h12.54l-6.39,31.75H315.22Zm4-8A6.11,6.11,0,0,1,323.57,40a7,7,0,0,1,2.31-5.38,8.47,8.47,0,0,1,6-2.15,7.84,7.84,0,0,1,5.38,1.82,5.76,5.76,0,0,1,2.07,4.49A7.29,7.29,0,0,1,337,44.43a8.64,8.64,0,0,1-6.07,2.14,7.51,7.51,0,0,1-5.3-1.9"/><path class="cls-1" d="M347.06,82.61a18,18,0,0,1-7.73-6.84,19.18,19.18,0,0,1-2.71-10.23A25,25,0,0,1,340,52.6a24.29,24.29,0,0,1,9.47-9.06,28,28,0,0,1,13.67-3.32,24,24,0,0,1,12,2.87,18.16,18.16,0,0,1,7.57,8.13l-10.68,5.34q-2.83-5.91-9.71-5.9a12.43,12.43,0,0,0-6.68,1.82,12.59,12.59,0,0,0-4.61,5.05,16,16,0,0,0-1.65,7.36A9.48,9.48,0,0,0,352.08,72c1.77,1.76,4.25,2.63,7.44,2.63a11.94,11.94,0,0,0,10.68-5.82l9.3,5.82a21.5,21.5,0,0,1-8.62,7.69,28.7,28.7,0,0,1-23.82.32"/><path class="cls-1" d="M433.65,40.87,425,84.39H413l.81-4.29a20.26,20.26,0,0,1-22.73,2.59,17.46,17.46,0,0,1-6.84-6.75,20.52,20.52,0,0,1-2.54-10.4,26.36,26.36,0,0,1,3.19-13,23.55,23.55,0,0,1,8.7-9.06,23.22,23.22,0,0,1,12.13-3.28q10,0,14.16,6.55l1.13-5.9ZM411,72.78a12.34,12.34,0,0,0,4.53-5,16.43,16.43,0,0,0,1.62-7.45,9.46,9.46,0,0,0-2.63-7,10,10,0,0,0-7.32-2.58A12.11,12.11,0,0,0,396,57.53,16.42,16.42,0,0,0,394.42,65a9.39,9.39,0,0,0,2.63,7,10,10,0,0,0,7.32,2.59A12.18,12.18,0,0,0,411,72.78"/><path class="cls-1" d="M456.75,41.59a29.26,29.26,0,0,1,9.43-1.37l-2.27,11.65c-1.51-.11-2.48-.16-2.91-.16q-5.75,0-9.18,2.83t-4.66,8.82l-4.2,21H430.34L439,40.87H449.2l.72,5.17a16.33,16.33,0,0,1,6.83-4.45"/></g></g></svg>